<mxfile host="app.diagrams.net" modified="2023-05-12T14:08:06.260Z" agent="Mozilla/5.0 (X11; Linux x86_64) AppleWebKit/537.36 (KHTML, like Gecko) Chrome/104.0.5112.124 YaBrowser/22.9.3.894 Yowser/2.5 Safari/537.36" etag="5P08W9MCySG2rfec5-dc" version="21.2.9" type="device" pages="2">
  <diagram name="A0" id="yFXzycM-z0YioWYdbV4p">
    <mxGraphModel dx="850" dy="477" grid="1" gridSize="10" guides="1" tooltips="1" connect="1" arrows="1" fold="1" page="1" pageScale="1" pageWidth="827" pageHeight="1169" math="0" shadow="0">
      <root>
        <mxCell id="0" />
        <mxCell id="1" parent="0" />
        <mxCell id="1Km1Da-YcfNlDDT_Z9R4-1" value="Метод построения поисковых индексов" style="shape=stencil(tVTRboMwDPyavFYh2T5gYtt/pKlXotIkcrJ1/fuaGKQiBq0mQEjgu3B3Bhyh69SYCEJJb84g9LtQKmKwkBLdEdww9iK5vHBZDbVJEWxm8MegM/sWmEkZwwku7pB7CecbQJc7Vn8I+UZrulPXNnhPIi74NGLueBIzztOz8pfFevvrqIqkf4YM2IdkVKjP52V3r9sIVxvlHcsO6VfPu57wOHG11YdbTbj6v6yuCZn7uXW9N/Z0xPDtD3+G+XJta0MbkEq+Fi+htOyP5Wai6QZvQgw0dmO7PE4PRn/OmPCJd0FnGqZWA8KDN8G7yYLr7IJiPXEoKG99BbgB);whiteSpace=wrap;html=1;fontFamily=Times New Roman;fontSize=14;spacingBottom=4;points=[[0,0,0,0,0],[0,0.25,0,0,0],[0,0.5,0,0,0],[0,0.75,0,0,0],[0,1,0,0,0],[0.25,0,0,0,0],[0.25,1,0,0,0],[0.5,0,0,0,0],[0.5,1,0,0,0],[0.75,0,0,0,0],[0.75,1,0,0,0],[1,0,0,0,0],[1,0.25,0,0,0],[1,0.5,0,0,0],[1,0.75,0,0,0],[1,1,0,0,0]];" vertex="1" parent="1">
          <mxGeometry x="280" y="160" width="160" height="80" as="geometry" />
        </mxCell>
        <mxCell id="1Km1Da-YcfNlDDT_Z9R4-2" value="" style="endArrow=classic;html=1;rounded=0;entryX=0;entryY=0.5;entryDx=0;entryDy=0;fontFamily=Times New Roman;fontSize=14;" edge="1" parent="1" target="1Km1Da-YcfNlDDT_Z9R4-1">
          <mxGeometry width="50" height="50" relative="1" as="geometry">
            <mxPoint x="160" y="200" as="sourcePoint" />
            <mxPoint x="200" y="170" as="targetPoint" />
          </mxGeometry>
        </mxCell>
        <mxCell id="1Km1Da-YcfNlDDT_Z9R4-4" value="Набор&lt;br&gt;ключей" style="edgeLabel;html=1;align=center;verticalAlign=middle;resizable=0;points=[];fontFamily=Times New Roman;fontSize=14;labelBackgroundColor=none;" vertex="1" connectable="0" parent="1Km1Da-YcfNlDDT_Z9R4-2">
          <mxGeometry x="0.4043" y="-1" relative="1" as="geometry">
            <mxPoint x="-24" y="-31" as="offset" />
          </mxGeometry>
        </mxCell>
        <mxCell id="1Km1Da-YcfNlDDT_Z9R4-5" value="" style="endArrow=classic;html=1;rounded=0;exitX=1;exitY=0.5;exitDx=0;exitDy=0;" edge="1" parent="1" source="1Km1Da-YcfNlDDT_Z9R4-1">
          <mxGeometry width="50" height="50" relative="1" as="geometry">
            <mxPoint x="600" y="270" as="sourcePoint" />
            <mxPoint x="560" y="200" as="targetPoint" />
          </mxGeometry>
        </mxCell>
        <mxCell id="1Km1Da-YcfNlDDT_Z9R4-6" value="&lt;font style=&quot;font-size: 14px;&quot; face=&quot;Times New Roman&quot;&gt;Индекс&lt;/font&gt;" style="edgeLabel;html=1;align=center;verticalAlign=middle;resizable=0;points=[];labelBackgroundColor=none;" vertex="1" connectable="0" parent="1Km1Da-YcfNlDDT_Z9R4-5">
          <mxGeometry x="0.4225" y="1" relative="1" as="geometry">
            <mxPoint x="-25" y="-29" as="offset" />
          </mxGeometry>
        </mxCell>
        <mxCell id="1Km1Da-YcfNlDDT_Z9R4-8" value="" style="endArrow=classic;html=1;rounded=0;entryX=0.25;entryY=0;entryDx=0;entryDy=0;entryPerimeter=0;" edge="1" parent="1" target="1Km1Da-YcfNlDDT_Z9R4-1">
          <mxGeometry width="50" height="50" relative="1" as="geometry">
            <mxPoint x="320" y="40" as="sourcePoint" />
            <mxPoint x="410" y="90" as="targetPoint" />
          </mxGeometry>
        </mxCell>
        <mxCell id="1Km1Da-YcfNlDDT_Z9R4-9" value="Правила&lt;br&gt;предварительной&lt;br&gt;обработки данных" style="edgeLabel;html=1;align=center;verticalAlign=middle;resizable=0;points=[];fontFamily=Times New Roman;fontSize=14;labelBackgroundColor=none;" vertex="1" connectable="0" parent="1Km1Da-YcfNlDDT_Z9R4-8">
          <mxGeometry x="-0.2188" y="-2" relative="1" as="geometry">
            <mxPoint x="-58" as="offset" />
          </mxGeometry>
        </mxCell>
        <mxCell id="1Km1Da-YcfNlDDT_Z9R4-10" value="" style="endArrow=classic;html=1;rounded=0;entryX=0.75;entryY=0;entryDx=0;entryDy=0;entryPerimeter=0;" edge="1" parent="1" target="1Km1Da-YcfNlDDT_Z9R4-1">
          <mxGeometry width="50" height="50" relative="1" as="geometry">
            <mxPoint x="400" y="40" as="sourcePoint" />
            <mxPoint x="413" y="140" as="targetPoint" />
          </mxGeometry>
        </mxCell>
        <mxCell id="1Km1Da-YcfNlDDT_Z9R4-11" value="Модель&lt;br&gt;нейронной&lt;br&gt;сети" style="edgeLabel;html=1;align=center;verticalAlign=middle;resizable=0;points=[];fontFamily=Times New Roman;fontSize=14;labelBackgroundColor=none;" vertex="1" connectable="0" parent="1Km1Da-YcfNlDDT_Z9R4-10">
          <mxGeometry x="-0.2188" y="-2" relative="1" as="geometry">
            <mxPoint x="42" y="3" as="offset" />
          </mxGeometry>
        </mxCell>
        <mxCell id="1Km1Da-YcfNlDDT_Z9R4-12" value="" style="endArrow=classic;html=1;rounded=0;entryX=0.5;entryY=1;entryDx=0;entryDy=0;entryPerimeter=0;" edge="1" parent="1" target="1Km1Da-YcfNlDDT_Z9R4-1">
          <mxGeometry width="50" height="50" relative="1" as="geometry">
            <mxPoint x="360" y="360" as="sourcePoint" />
            <mxPoint x="359.5" y="250" as="targetPoint" />
          </mxGeometry>
        </mxCell>
        <mxCell id="1Km1Da-YcfNlDDT_Z9R4-13" value="Алгоритм&lt;br&gt;обучения" style="edgeLabel;html=1;align=center;verticalAlign=middle;resizable=0;points=[];fontFamily=Times New Roman;fontSize=14;labelBackgroundColor=none;" vertex="1" connectable="0" parent="1Km1Da-YcfNlDDT_Z9R4-12">
          <mxGeometry x="-0.2188" y="-2" relative="1" as="geometry">
            <mxPoint x="28" y="-13" as="offset" />
          </mxGeometry>
        </mxCell>
      </root>
    </mxGraphModel>
  </diagram>
  <diagram id="qmPKGXvoeMTTLFc1y_zM" name="A1">
    <mxGraphModel dx="1063" dy="596" grid="1" gridSize="10" guides="1" tooltips="1" connect="1" arrows="1" fold="1" page="1" pageScale="1" pageWidth="827" pageHeight="1169" math="0" shadow="0">
      <root>
        <mxCell id="0" />
        <mxCell id="1" parent="0" />
        <mxCell id="VNHkJXpOaLyShzUM_bZz-3" style="edgeStyle=orthogonalEdgeStyle;rounded=0;orthogonalLoop=1;jettySize=auto;html=1;exitX=0;exitY=0.5;exitDx=0;exitDy=0;exitPerimeter=0;entryX=0;entryY=0.5;entryDx=0;entryDy=0;entryPerimeter=0;" edge="1" parent="1" target="YRXjiUU4PBw1ZXabQApX-1">
          <mxGeometry relative="1" as="geometry">
            <mxPoint x="20" y="160" as="sourcePoint" />
          </mxGeometry>
        </mxCell>
        <mxCell id="5cBtA6jXt6czBHdB1zpv-1" style="edgeStyle=orthogonalEdgeStyle;rounded=0;orthogonalLoop=1;jettySize=auto;html=1;exitX=1;exitY=0.5;exitDx=0;exitDy=0;exitPerimeter=0;entryX=0;entryY=0.5;entryDx=0;entryDy=0;entryPerimeter=0;" edge="1" parent="1" source="YRXjiUU4PBw1ZXabQApX-1" target="VNHkJXpOaLyShzUM_bZz-1">
          <mxGeometry relative="1" as="geometry" />
        </mxCell>
        <mxCell id="5cBtA6jXt6czBHdB1zpv-2" style="edgeStyle=orthogonalEdgeStyle;rounded=0;orthogonalLoop=1;jettySize=auto;html=1;exitX=1;exitY=0.5;exitDx=0;exitDy=0;exitPerimeter=0;entryX=0;entryY=0.75;entryDx=0;entryDy=0;entryPerimeter=0;" edge="1" parent="1" source="YRXjiUU4PBw1ZXabQApX-1" target="VNHkJXpOaLyShzUM_bZz-2">
          <mxGeometry relative="1" as="geometry">
            <Array as="points">
              <mxPoint x="320" y="160" />
              <mxPoint x="320" y="380" />
            </Array>
          </mxGeometry>
        </mxCell>
        <mxCell id="K4uNHn8bxdNuuKv8pfja-1" style="edgeStyle=orthogonalEdgeStyle;rounded=0;orthogonalLoop=1;jettySize=auto;html=1;exitX=0.5;exitY=0;exitDx=0;exitDy=0;exitPerimeter=0;entryX=0.5;entryY=0;entryDx=0;entryDy=0;entryPerimeter=0;" edge="1" parent="1" target="YRXjiUU4PBw1ZXabQApX-1">
          <mxGeometry relative="1" as="geometry">
            <mxPoint x="219.8461538461538" y="20" as="sourcePoint" />
          </mxGeometry>
        </mxCell>
        <mxCell id="YRXjiUU4PBw1ZXabQApX-1" value="Предварительная обработка ключей" style="shape=stencil(tVTRboMwDPyavFYh2T5gYtt/pKlXotIkcrJ1/fuaGKQiBq0mQEjgu3B3Bhyh69SYCEJJb84g9LtQKmKwkBLdEdww9iK5vHBZDbVJEWxm8MegM/sWmEkZwwku7pB7CecbQJc7Vn8I+UZrulPXNnhPIi74NGLueBIzztOz8pfFevvrqIqkf4YM2IdkVKjP52V3r9sIVxvlHcsO6VfPu57wOHG11YdbTbj6v6yuCZn7uXW9N/Z0xPDtD3+G+XJta0MbkEq+Fi+htOyP5Wai6QZvQgw0dmO7PE4PRn/OmPCJd0FnGqZWA8KDN8G7yYLr7IJiPXEoKG99BbgB);whiteSpace=wrap;html=1;fontFamily=Times New Roman;fontSize=14;spacingBottom=4;points=[[0,0,0,0,0],[0,0.25,0,0,0],[0,0.5,0,0,0],[0,0.75,0,0,0],[0,1,0,0,0],[0.25,0,0,0,0],[0.25,1,0,0,0],[0.5,0,0,0,0],[0.5,1,0,0,0],[0.75,0,0,0,0],[0.75,1,0,0,0],[1,0,0,0,0],[1,0.25,0,0,0],[1,0.5,0,0,0],[1,0.75,0,0,0],[1,1,0,0,0]];" vertex="1" parent="1">
          <mxGeometry x="140" y="120" width="160" height="80" as="geometry" />
        </mxCell>
        <mxCell id="5cBtA6jXt6czBHdB1zpv-3" style="edgeStyle=orthogonalEdgeStyle;rounded=0;orthogonalLoop=1;jettySize=auto;html=1;exitX=1;exitY=0.5;exitDx=0;exitDy=0;exitPerimeter=0;entryX=0;entryY=0.25;entryDx=0;entryDy=0;entryPerimeter=0;" edge="1" parent="1" source="VNHkJXpOaLyShzUM_bZz-1" target="VNHkJXpOaLyShzUM_bZz-2">
          <mxGeometry relative="1" as="geometry" />
        </mxCell>
        <mxCell id="K4uNHn8bxdNuuKv8pfja-2" style="edgeStyle=orthogonalEdgeStyle;rounded=0;orthogonalLoop=1;jettySize=auto;html=1;exitX=0.5;exitY=0;exitDx=0;exitDy=0;exitPerimeter=0;entryX=0.5;entryY=0;entryDx=0;entryDy=0;entryPerimeter=0;" edge="1" parent="1" target="VNHkJXpOaLyShzUM_bZz-1">
          <mxGeometry relative="1" as="geometry">
            <mxPoint x="220" y="20" as="sourcePoint" />
            <Array as="points">
              <mxPoint x="221" y="20" />
              <mxPoint x="221" y="80" />
              <mxPoint x="420" y="80" />
            </Array>
          </mxGeometry>
        </mxCell>
        <mxCell id="VNHkJXpOaLyShzUM_bZz-1" value="Получение&lt;br&gt;значений функции распределения для каждого ключа" style="shape=stencil(tVTRboMwDPyavFYh2T5gYtt/pKlXotIkcrJ1/fuaGKQiBq0mQEjgu3B3Bhyh69SYCEJJb84g9LtQKmKwkBLdEdww9iK5vHBZDbVJEWxm8MegM/sWmEkZwwku7pB7CecbQJc7Vn8I+UZrulPXNnhPIi74NGLueBIzztOz8pfFevvrqIqkf4YM2IdkVKjP52V3r9sIVxvlHcsO6VfPu57wOHG11YdbTbj6v6yuCZn7uXW9N/Z0xPDtD3+G+XJta0MbkEq+Fi+htOyP5Wai6QZvQgw0dmO7PE4PRn/OmPCJd0FnGqZWA8KDN8G7yYLr7IJiPXEoKG99BbgB);whiteSpace=wrap;html=1;fontFamily=Times New Roman;fontSize=14;spacingBottom=4;points=[[0,0,0,0,0],[0,0.25,0,0,0],[0,0.5,0,0,0],[0,0.75,0,0,0],[0,1,0,0,0],[0.25,0,0,0,0],[0.25,1,0,0,0],[0.5,0,0,0,0],[0.5,1,0,0,0],[0.75,0,0,0,0],[0.75,1,0,0,0],[1,0,0,0,0],[1,0.25,0,0,0],[1,0.5,0,0,0],[1,0.75,0,0,0],[1,1,0,0,0]];" vertex="1" parent="1">
          <mxGeometry x="340" y="220" width="160" height="80" as="geometry" />
        </mxCell>
        <mxCell id="5cBtA6jXt6czBHdB1zpv-4" style="edgeStyle=orthogonalEdgeStyle;rounded=0;orthogonalLoop=1;jettySize=auto;html=1;exitX=1;exitY=0.5;exitDx=0;exitDy=0;exitPerimeter=0;" edge="1" parent="1" source="VNHkJXpOaLyShzUM_bZz-2">
          <mxGeometry relative="1" as="geometry">
            <mxPoint x="820" y="360" as="targetPoint" />
          </mxGeometry>
        </mxCell>
        <mxCell id="K4uNHn8bxdNuuKv8pfja-3" style="edgeStyle=orthogonalEdgeStyle;rounded=0;orthogonalLoop=1;jettySize=auto;html=1;exitX=0.5;exitY=0;exitDx=0;exitDy=0;exitPerimeter=0;entryX=0.5;entryY=0;entryDx=0;entryDy=0;entryPerimeter=0;" edge="1" parent="1" target="VNHkJXpOaLyShzUM_bZz-2">
          <mxGeometry relative="1" as="geometry">
            <mxPoint x="619.6666666666667" y="20" as="sourcePoint" />
          </mxGeometry>
        </mxCell>
        <mxCell id="K4uNHn8bxdNuuKv8pfja-4" style="edgeStyle=orthogonalEdgeStyle;rounded=0;orthogonalLoop=1;jettySize=auto;html=1;exitX=0.5;exitY=1;exitDx=0;exitDy=0;exitPerimeter=0;entryX=0.5;entryY=1;entryDx=0;entryDy=0;entryPerimeter=0;" edge="1" parent="1" target="VNHkJXpOaLyShzUM_bZz-2">
          <mxGeometry relative="1" as="geometry">
            <mxPoint x="619.6666666666667" y="480" as="sourcePoint" />
          </mxGeometry>
        </mxCell>
        <mxCell id="VNHkJXpOaLyShzUM_bZz-2" value="Обучение модели нейронной сети" style="shape=stencil(tVTRboMwDPyavFYh2T5gYtt/pKlXotIkcrJ1/fuaGKQiBq0mQEjgu3B3Bhyh69SYCEJJb84g9LtQKmKwkBLdEdww9iK5vHBZDbVJEWxm8MegM/sWmEkZwwku7pB7CecbQJc7Vn8I+UZrulPXNnhPIi74NGLueBIzztOz8pfFevvrqIqkf4YM2IdkVKjP52V3r9sIVxvlHcsO6VfPu57wOHG11YdbTbj6v6yuCZn7uXW9N/Z0xPDtD3+G+XJta0MbkEq+Fi+htOyP5Wai6QZvQgw0dmO7PE4PRn/OmPCJd0FnGqZWA8KDN8G7yYLr7IJiPXEoKG99BbgB);whiteSpace=wrap;html=1;fontFamily=Times New Roman;fontSize=14;spacingBottom=4;points=[[0,0,0,0,0],[0,0.25,0,0,0],[0,0.5,0,0,0],[0,0.75,0,0,0],[0,1,0,0,0],[0.25,0,0,0,0],[0.25,1,0,0,0],[0.5,0,0,0,0],[0.5,1,0,0,0],[0.75,0,0,0,0],[0.75,1,0,0,0],[1,0,0,0,0],[1,0.25,0,0,0],[1,0.5,0,0,0],[1,0.75,0,0,0],[1,1,0,0,0]];" vertex="1" parent="1">
          <mxGeometry x="540" y="320" width="160" height="80" as="geometry" />
        </mxCell>
        <mxCell id="4ERX2aIhN12B0YM6mw1_-1" value="Набор&lt;br&gt;целочисленных&lt;br&gt;ключей" style="edgeLabel;html=1;align=center;verticalAlign=middle;resizable=0;points=[];fontFamily=Times New Roman;fontSize=14;labelBackgroundColor=none;" vertex="1" connectable="0" parent="1">
          <mxGeometry x="80" y="120" as="geometry" />
        </mxCell>
        <mxCell id="awJWeujHHhdRLdk3-X4l-1" value="Правила&lt;br&gt;предварительной&lt;br&gt;обработки данных" style="edgeLabel;html=1;align=center;verticalAlign=middle;resizable=0;points=[];fontFamily=Times New Roman;fontSize=14;labelBackgroundColor=none;" vertex="1" connectable="0" parent="1">
          <mxGeometry x="280" y="50" as="geometry" />
        </mxCell>
        <mxCell id="trdoh5Rx9WeL1LCI86Cn-1" value="Модель&lt;br&gt;нейронной&lt;br&gt;сети" style="edgeLabel;html=1;align=center;verticalAlign=middle;resizable=0;points=[];fontFamily=Times New Roman;fontSize=14;labelBackgroundColor=none;" vertex="1" connectable="0" parent="1">
          <mxGeometry x="660" y="50" as="geometry" />
        </mxCell>
        <mxCell id="lra-ojvp969Ze-Dp2Aty-1" value="Алгоритм&lt;br&gt;обучения" style="edgeLabel;html=1;align=center;verticalAlign=middle;resizable=0;points=[];fontFamily=Times New Roman;fontSize=14;labelBackgroundColor=none;" vertex="1" connectable="0" parent="1">
          <mxGeometry x="660" y="440" as="geometry" />
        </mxCell>
        <mxCell id="D7aJVOPplJiEWnKuDGXk-1" value="&lt;font style=&quot;font-size: 14px;&quot; face=&quot;Times New Roman&quot;&gt;Индекс&lt;/font&gt;" style="edgeLabel;html=1;align=center;verticalAlign=middle;resizable=0;points=[];labelBackgroundColor=none;" vertex="1" connectable="0" parent="1">
          <mxGeometry x="760" y="340" as="geometry" />
        </mxCell>
        <mxCell id="D7aJVOPplJiEWnKuDGXk-2" value="Обработанный&lt;br&gt;набор ключей" style="edgeLabel;html=1;align=center;verticalAlign=middle;resizable=0;points=[];fontFamily=Times New Roman;fontSize=14;labelBackgroundColor=none;" vertex="1" connectable="0" parent="1">
          <mxGeometry x="260" y="230" as="geometry">
            <mxPoint x="3" y="2" as="offset" />
          </mxGeometry>
        </mxCell>
        <mxCell id="D7aJVOPplJiEWnKuDGXk-4" value="Значения функции&lt;br&gt;распределения&lt;br&gt;ключей" style="edgeLabel;html=1;align=center;verticalAlign=middle;resizable=0;points=[];fontFamily=Times New Roman;fontSize=14;labelBackgroundColor=none;" vertex="1" connectable="0" parent="1">
          <mxGeometry x="560" y="240" as="geometry" />
        </mxCell>
      </root>
    </mxGraphModel>
  </diagram>
</mxfile>
